<svg width="15" height="14" viewBox="0 0 15 14" fill="none" xmlns="http://www.w3.org/2000/svg">
<path fill-rule="evenodd" clip-rule="evenodd" d="M12.5404 1.95948C12.1499 1.56895 11.5168 1.56895 11.1262 1.95948L10.5976 2.48807L12.0118 3.90229L12.5404 3.37369C12.931 2.98317 12.931 2.35 12.5404 1.95948ZM13.4833 4.3165C14.3945 3.40528 14.3945 1.92789 13.4833 1.01667C12.572 0.105446 11.0946 0.105446 10.1834 1.01667L9.18355 2.01654L1.02864 10.1715C0.903612 10.2965 0.833374 10.466 0.833374 10.6429V13.0236C0.833374 13.3918 1.13185 13.6902 1.50004 13.6902H3.83337C4.01019 13.6902 4.17975 13.62 4.30478 13.495L13.4833 4.3165ZM11.069 4.8451L9.65483 3.43088L2.16671 10.919V12.3569H3.55723L11.069 4.8451Z" fill="white"/>
</svg>
